PathFileType	4	(X/Y/Z)	D:\TRACE\spotREDO_2-26-24\spot_baseline_1-v60.trc
DataRate	CameraRate	NumFrames	NumMarkers	Units	OrigDataRate	OrigDataStartFrame	OrigNumFrames
100.00	100.00	      20	9	mm	100.00	2626	      7000
Frame#	Time	front left toe			Front right toe			aft left toe			aft right toe			Arm			FL body			FR body			AL Body			AR Body			
		X1	Y1	Z1	X2	Y2	Z2	X3	Y3	Z3	X4	Y4	Z4	X5	Y5	Z5	X6	Y6	Z6	X7	Y7	Z7	X8	Y8	Z8	X9	Y9	Z9	

2626	26.250	-311.90216	21.32793	-197.83388	208.34770	23.31181	-213.81528	-200.05809	19.03420	281.36020	264.52878	49.69059	241.00237	-70.13980	809.35162	-393.57135	-150.74879	550.39276	-358.52649	3.79301	554.68048	-381.40802	-32.28382	558.75714	516.90741	114.61292	558.56085	498.17487	
2627	26.260	-311.93320	20.90334	-197.94368	208.04436	23.40665	-213.96420	-199.67482	19.26876	281.13113	265.80664	61.65866	243.73984	-71.73701	809.65289	-394.90933	-152.83658	550.06384	-360.07346	1.81963	553.99683	-382.81085	-34.14211	559.08130	515.48590	110.79206	558.97540	496.49408	
2628	26.270	-312.30765	20.13654	-197.58815	208.56078	23.31353	-213.55574	-199.70709	19.48126	281.19571	269.24731	75.72691	240.30904	-73.25414	809.38611	-396.14304	-154.53549	549.32220	-361.26584	0.40506	552.97485	-383.92126	-36.41055	559.50403	514.27942	109.32028	559.02905	495.21689	
2629	26.280	-312.48062	19.87140	-197.68854	208.35599	23.48558	-213.68759	-200.41414	19.33659	281.07446	273.49521	89.67674	234.39241	-75.47009	808.05676	-397.83737	-156.00050	548.85577	-362.58725	-1.12811	552.50830	-385.14252	-38.33055	559.46533	513.16309	107.75349	559.09479	494.31177	
2630	26.290	-312.42679	19.96905	-197.77330	208.19852	23.60149	-213.78819	-200.80397	19.04287	281.11362	271.67072	101.10718	230.56174	-77.05036	806.70807	-399.24814	-157.45605	548.86017	-363.83276	-2.80085	552.47784	-386.35492	-40.10661	559.31726	512.07147	106.47326	558.81299	493.27112	
2631	26.300	-312.44760	20.09150	-197.74864	208.18149	23.65575	-213.83655	-200.91367	18.64113	281.19110	272.39359	111.23888	230.85139	-78.24679	806.72253	-400.51413	-159.41605	548.70013	-365.34158	-4.09122	552.25604	-387.17325	-41.61395	559.18347	510.96146	105.10912	558.48657	492.16922	
2632	26.310	-312.59662	19.93120	-197.69286	208.30074	23.54534	-213.89867	-201.03171	18.59903	281.22714	269.56296	118.72589	234.84456	-79.43137	807.03998	-401.52725	-159.98260	548.11981	-365.72052	-5.75164	552.05475	-388.41656	-42.92686	558.81525	509.76480	103.92233	558.34393	491.07111	
2633	26.320	-312.86566	19.74402	-197.66840	208.05858	23.68614	-214.18277	-201.14787	18.66006	281.08936	272.24158	126.65548	238.95358	-80.45750	807.01733	-402.46436	-161.92337	548.22272	-367.08643	-7.24298	551.86493	-389.47205	-44.12129	558.77258	508.86298	102.81327	558.26868	489.94699	
2634	26.330	-312.98389	19.61695	-197.70239	208.01276	23.75452	-214.16765	-201.44247	18.90608	281.09485	274.10370	133.73564	241.81212	-81.69852	806.77545	-403.04401	-163.13641	547.97119	-367.87753	-8.27709	551.69720	-390.26230	-45.61556	558.63391	507.89383	101.50451	558.06970	489.00256	
2635	26.340	-312.98907	19.57009	-197.76483	207.89764	23.88794	-214.20340	-201.55893	18.82817	281.12012	278.91806	141.22798	242.31868	-82.89004	806.57257	-404.25275	-163.97539	547.69513	-368.80704	-9.26419	551.55444	-391.06906	-47.20884	558.50732	507.00772	100.07401	558.08264	488.38721	
2636	26.350	-312.86310	19.54003	-197.85992	208.00424	23.88338	-214.11143	-201.62360	18.72125	281.14700	282.06213	146.44014	241.71107	-84.12253	806.25726	-405.01489	-164.91119	547.37128	-369.71854	-10.32261	551.41901	-391.96332	-48.27813	558.21484	506.12567	98.59229	558.01483	487.62781	
2637	26.360	-312.88815	19.47086	-197.94678	207.97009	23.86060	-214.17506	-201.73109	18.65798	281.10062	284.41162	148.79823	242.08498	-85.71378	805.86322	-405.70190	-165.78775	547.06799	-370.36322	-11.05519	551.28589	-392.62488	-50.05064	558.38654	505.62259	97.16656	558.31024	487.10858	
2638	26.370	-312.97250	19.25998	-197.94075	207.81442	24.03874	-214.20207	-201.89124	18.61970	281.15274	286.62244	148.95621	243.31258	-86.90038	805.86121	-406.35544	-166.39590	547.03217	-370.79126	-12.01750	551.23816	-393.20035	-50.99263	558.38428	505.00366	96.03523	558.37683	486.45950	
2639	26.380	-313.08002	19.36141	-197.95226	207.78246	23.89328	-214.41327	-200.97102	18.07643	281.10474	287.14206	147.09500	245.20581	-87.62164	805.92615	-406.86264	-167.54677	547.27289	-371.67966	-13.04714	551.47699	-393.88388	-51.89870	558.21313	504.43930	95.15948	558.16638	485.87823	
2640	26.390	-313.09286	19.36573	-197.93895	207.70476	23.89979	-214.51762	-200.87004	18.02204	281.09116	289.21118	145.75880	247.48436	-88.29922	806.07849	-407.13910	-168.37683	547.27612	-372.30328	-13.74098	551.62262	-394.35477	-52.79348	558.12848	503.80206	94.54907	558.08887	485.46527	
2641	26.400	-313.15857	19.31833	-197.90828	207.52965	23.99249	-214.60748	-200.96014	17.94160	281.07892	290.19830	145.16013	249.40686	-88.95921	806.28223	-407.72574	-169.15636	547.26239	-372.73425	-14.45020	551.71729	-394.74738	-53.50227	557.95740	503.31091	93.83867	557.84576	484.73264	
2642	26.410	-313.30197	19.35610	-197.90828	207.62021	23.92843	-214.54364	-201.00870	17.87584	281.11066	293.27475	145.50854	251.03990	-89.69010	806.42993	-408.10403	-170.02943	547.33832	-373.04779	-15.53168	551.82953	-395.45804	-54.16899	557.84528	502.95316	93.16343	557.79407	484.26797	
2643	26.420	-313.34607	19.32834	-197.91266	207.47130	23.92320	-214.62375	-201.03798	17.84416	281.04553	295.92407	146.54349	252.76144	-90.41137	806.44409	-408.45123	-170.63882	547.45587	-373.61404	-15.94311	551.85687	-395.77161	-54.83385	557.94269	502.48230	92.44221	557.84253	483.88254	
2644	26.430	-313.29535	19.26799	-197.95753	207.56764	23.96891	-214.57553	-201.01059	17.92543	281.11401	298.85294	147.38889	254.31870	-91.21992	806.44525	-408.96976	-171.24033	547.48254	-374.00150	-16.46852	551.85138	-396.03989	-55.37698	557.99762	502.10968	91.88689	557.97485	483.62155	
2645	26.440	-313.32538	19.27538	-197.96664	207.54510	24.00317	-214.59102	-200.99835	17.83043	281.00067	301.42404	147.44247	255.66185	-91.92416	806.31549	-409.29236	-171.71729	547.40765	-374.18036	-17.02910	551.74719	-396.43387	-56.14507	558.01453	501.71957	91.24959	558.23834	483.24814	
